<?xml version="1.0" encoding="UTF-8" standalone="no"?>
<!-- Created with Inkscape (http://www.inkscape.org/) -->

<svg
   width="200mm"
   height="200mm"
   viewBox="0 0 200 200"
   version="1.1"
   id="svg2396"
   inkscape:version="1.2.2 (b0a8486541, 2022-12-01)"
   sodipodi:docname="chess.svg"
   xml:space="preserve"
   xmlns:inkscape="http://www.inkscape.org/namespaces/inkscape"
   xmlns:sodipodi="http://sodipodi.sourceforge.net/DTD/sodipodi-0.dtd"
   xmlns="http://www.w3.org/2000/svg"
   xmlns:svg="http://www.w3.org/2000/svg"><sodipodi:namedview
     id="namedview2398"
     pagecolor="#505050"
     bordercolor="#eeeeee"
     borderopacity="1"
     inkscape:showpageshadow="0"
     inkscape:pageopacity="0"
     inkscape:pagecheckerboard="0"
     inkscape:deskcolor="#505050"
     inkscape:document-units="mm"
     showgrid="false"
     inkscape:zoom="0.53228931"
     inkscape:cx="11.272066"
     inkscape:cy="334.40461"
     inkscape:window-width="1920"
     inkscape:window-height="1011"
     inkscape:window-x="0"
     inkscape:window-y="32"
     inkscape:window-maximized="1"
     inkscape:current-layer="layer1"
     showguides="false" /><defs
     id="defs2393" /><g
     inkscape:label="Layer 1"
     inkscape:groupmode="layer"
     id="layer1"><rect
       style="fill:#2a303c;fill-opacity:1;stroke:none;stroke-width:0.263735"
       id="rect4384"
       width="25.000002"
       height="24.999998"
       x="0"
       y="0" /><rect
       style="fill:#4b5563;fill-opacity:1;stroke:none;stroke-width:0.263735"
       id="rect4384-62"
       width="25.000002"
       height="24.999998"
       x="24.999985"
       y="0" /><rect
       style="fill:#2a303c;fill-opacity:1;stroke:none;stroke-width:0.263735"
       id="rect4384-06"
       width="25.000002"
       height="24.999998"
       x="50"
       y="0" /><rect
       style="fill:#4b5563;fill-opacity:1;stroke:none;stroke-width:0.263735"
       id="rect4384-62-2"
       width="25.000002"
       height="24.999998"
       x="75"
       y="0" /><rect
       style="fill:#2a303c;fill-opacity:1;stroke:none;stroke-width:0.263735"
       id="rect4384-61"
       width="25.000002"
       height="24.999998"
       x="100"
       y="0" /><rect
       style="fill:#4b5563;fill-opacity:1;stroke:none;stroke-width:0.263735"
       id="rect4384-62-8"
       width="25.000002"
       height="24.999998"
       x="125"
       y="0" /><rect
       style="fill:#2a303c;fill-opacity:1;stroke:none;stroke-width:0.263735"
       id="rect4384-06-7"
       width="25.000002"
       height="24.999998"
       x="150.00002"
       y="0" /><rect
       style="fill:#4b5563;fill-opacity:1;stroke:none;stroke-width:0.263735"
       id="rect4384-62-2-9"
       width="25.000002"
       height="24.999998"
       x="174.99998"
       y="0" /><rect
       style="fill:#2a303c;fill-opacity:1;stroke:none;stroke-width:0.263735"
       id="rect4384-2"
       width="25.000002"
       height="24.999998"
       x="24.999985"
       y="25" /><rect
       style="fill:#4b5563;fill-opacity:1;stroke:none;stroke-width:0.263735"
       id="rect4384-62-0"
       width="25.000002"
       height="24.999998"
       x="50"
       y="25" /><rect
       style="fill:#2a303c;fill-opacity:1;stroke:none;stroke-width:0.263735"
       id="rect4384-06-2"
       width="25.000002"
       height="24.999998"
       x="75"
       y="25" /><rect
       style="fill:#4b5563;fill-opacity:1;stroke:none;stroke-width:0.263735"
       id="rect4384-62-2-3"
       width="25.000002"
       height="24.999998"
       x="100"
       y="25" /><rect
       style="fill:#2a303c;fill-opacity:1;stroke:none;stroke-width:0.263735"
       id="rect4384-61-7"
       width="25.000002"
       height="24.999998"
       x="125"
       y="25" /><rect
       style="fill:#4b5563;fill-opacity:1;stroke:none;stroke-width:0.263735"
       id="rect4384-62-8-5"
       width="25.000002"
       height="24.999998"
       x="150.00002"
       y="25" /><rect
       style="fill:#2a303c;fill-opacity:1;stroke:none;stroke-width:0.263735"
       id="rect4384-06-7-9"
       width="25.000002"
       height="24.999998"
       x="174.99998"
       y="25" /><rect
       style="fill:#4b5563;fill-opacity:1;stroke:none;stroke-width:0.263735"
       id="rect4384-62-2-9-2"
       width="25.000002"
       height="24.999998"
       x="0"
       y="25" /><rect
       style="fill:#2a303c;fill-opacity:1;stroke:none;stroke-width:0.263735"
       id="rect4384-3"
       width="25.000002"
       height="24.999998"
       x="0"
       y="50" /><rect
       style="fill:#4b5563;fill-opacity:1;stroke:none;stroke-width:0.263735"
       id="rect4384-62-1"
       width="25.000002"
       height="24.999998"
       x="24.999985"
       y="50" /><rect
       style="fill:#2a303c;fill-opacity:1;stroke:none;stroke-width:0.263735"
       id="rect4384-06-4"
       width="25.000002"
       height="24.999998"
       x="50"
       y="50" /><rect
       style="fill:#4b5563;fill-opacity:1;stroke:none;stroke-width:0.263735"
       id="rect4384-62-2-92"
       width="25.000002"
       height="24.999998"
       x="75"
       y="50" /><rect
       style="fill:#2a303c;fill-opacity:1;stroke:none;stroke-width:0.263735"
       id="rect4384-61-0"
       width="25.000002"
       height="24.999998"
       x="100"
       y="50" /><rect
       style="fill:#4b5563;fill-opacity:1;stroke:none;stroke-width:0.263735"
       id="rect4384-62-8-6"
       width="25.000002"
       height="24.999998"
       x="125"
       y="50" /><rect
       style="fill:#2a303c;fill-opacity:1;stroke:none;stroke-width:0.263735"
       id="rect4384-06-7-8"
       width="25.000002"
       height="24.999998"
       x="149.99995"
       y="50" /><rect
       style="fill:#4b5563;fill-opacity:1;stroke:none;stroke-width:0.263735"
       id="rect4384-62-2-9-9"
       width="25.000002"
       height="24.999998"
       x="174.99998"
       y="50" /><rect
       style="fill:#2a303c;fill-opacity:1;stroke:none;stroke-width:0.263735"
       id="rect4384-2-2"
       width="25.000002"
       height="24.999998"
       x="24.999985"
       y="75" /><rect
       style="fill:#4b5563;fill-opacity:1;stroke:none;stroke-width:0.263735"
       id="rect4384-62-0-6"
       width="25.000002"
       height="24.999998"
       x="50"
       y="75" /><rect
       style="fill:#2a303c;fill-opacity:1;stroke:none;stroke-width:0.263735"
       id="rect4384-06-2-6"
       width="25.000002"
       height="24.999998"
       x="75"
       y="75" /><rect
       style="fill:#4b5563;fill-opacity:1;stroke:none;stroke-width:0.263735"
       id="rect4384-62-2-3-4"
       width="25.000002"
       height="24.999998"
       x="100"
       y="75" /><rect
       style="fill:#2a303c;fill-opacity:1;stroke:none;stroke-width:0.263735"
       id="rect4384-61-7-9"
       width="25.000002"
       height="24.999998"
       x="125"
       y="75" /><rect
       style="fill:#4b5563;fill-opacity:1;stroke:none;stroke-width:0.263735"
       id="rect4384-62-8-5-5"
       width="25.000002"
       height="24.999998"
       x="149.99995"
       y="75" /><rect
       style="fill:#2a303c;fill-opacity:1;stroke:none;stroke-width:0.263735"
       id="rect4384-06-7-9-0"
       width="25.000002"
       height="24.999998"
       x="174.99998"
       y="75" /><rect
       style="fill:#4b5563;fill-opacity:1;stroke:none;stroke-width:0.263735"
       id="rect4384-62-2-9-2-4"
       width="25.000002"
       height="24.999998"
       x="0"
       y="75" /><rect
       style="fill:#2a303c;fill-opacity:1;stroke:none;stroke-width:0.263735"
       id="rect4384-8"
       width="25.000002"
       height="24.999998"
       x="0"
       y="100" /><rect
       style="fill:#4b5563;fill-opacity:1;stroke:none;stroke-width:0.263735"
       id="rect4384-62-7"
       width="25.000002"
       height="24.999998"
       x="24.999985"
       y="100" /><rect
       style="fill:#2a303c;fill-opacity:1;stroke:none;stroke-width:0.263735"
       id="rect4384-06-1"
       width="25.000002"
       height="24.999998"
       x="50"
       y="100" /><rect
       style="fill:#4b5563;fill-opacity:1;stroke:none;stroke-width:0.263735"
       id="rect4384-62-2-7"
       width="25.000002"
       height="24.999998"
       x="75"
       y="100" /><rect
       style="fill:#2a303c;fill-opacity:1;stroke:none;stroke-width:0.263735"
       id="rect4384-61-2"
       width="25.000002"
       height="24.999998"
       x="100"
       y="100" /><rect
       style="fill:#4b5563;fill-opacity:1;stroke:none;stroke-width:0.263735"
       id="rect4384-62-8-7"
       width="25.000002"
       height="24.999998"
       x="125"
       y="100" /><rect
       style="fill:#2a303c;fill-opacity:1;stroke:none;stroke-width:0.263735"
       id="rect4384-06-7-2"
       width="25.000002"
       height="24.999998"
       x="150.00002"
       y="100" /><rect
       style="fill:#4b5563;fill-opacity:1;stroke:none;stroke-width:0.263735"
       id="rect4384-62-2-9-26"
       width="25.000002"
       height="24.999998"
       x="174.99998"
       y="100" /><rect
       style="fill:#2a303c;fill-opacity:1;stroke:none;stroke-width:0.263735"
       id="rect4384-2-1"
       width="25.000002"
       height="24.999998"
       x="24.999985"
       y="125" /><rect
       style="fill:#4b5563;fill-opacity:1;stroke:none;stroke-width:0.263735"
       id="rect4384-62-0-0"
       width="25.000002"
       height="24.999998"
       x="50"
       y="125" /><rect
       style="fill:#2a303c;fill-opacity:1;stroke:none;stroke-width:0.263735"
       id="rect4384-06-2-61"
       width="25.000002"
       height="24.999998"
       x="75"
       y="125" /><rect
       style="fill:#4b5563;fill-opacity:1;stroke:none;stroke-width:0.263735"
       id="rect4384-62-2-3-5"
       width="25.000002"
       height="24.999998"
       x="100"
       y="125" /><rect
       style="fill:#2a303c;fill-opacity:1;stroke:none;stroke-width:0.263735"
       id="rect4384-61-7-94"
       width="25.000002"
       height="24.999998"
       x="125"
       y="125" /><rect
       style="fill:#4b5563;fill-opacity:1;stroke:none;stroke-width:0.263735"
       id="rect4384-62-8-5-9"
       width="25.000002"
       height="24.999998"
       x="150.00002"
       y="125" /><rect
       style="fill:#2a303c;fill-opacity:1;stroke:none;stroke-width:0.263735"
       id="rect4384-06-7-9-09"
       width="25.000002"
       height="24.999998"
       x="174.99998"
       y="125" /><rect
       style="fill:#4b5563;fill-opacity:1;stroke:none;stroke-width:0.263735"
       id="rect4384-62-2-9-2-1"
       width="25.000002"
       height="24.999998"
       x="0"
       y="125" /><rect
       style="fill:#2a303c;fill-opacity:1;stroke:none;stroke-width:0.263735"
       id="rect4384-3-7"
       width="25.000002"
       height="24.999998"
       x="0"
       y="150" /><rect
       style="fill:#4b5563;fill-opacity:1;stroke:none;stroke-width:0.263735"
       id="rect4384-62-1-7"
       width="25.000002"
       height="24.999998"
       x="24.999985"
       y="150" /><rect
       style="fill:#2a303c;fill-opacity:1;stroke:none;stroke-width:0.263735"
       id="rect4384-06-4-1"
       width="25.000002"
       height="24.999998"
       x="50"
       y="150" /><rect
       style="fill:#4b5563;fill-opacity:1;stroke:none;stroke-width:0.263735"
       id="rect4384-62-2-92-1"
       width="25.000002"
       height="24.999998"
       x="75"
       y="150" /><rect
       style="fill:#2a303c;fill-opacity:1;stroke:none;stroke-width:0.263735"
       id="rect4384-61-0-5"
       width="25.000002"
       height="24.999998"
       x="100"
       y="150" /><rect
       style="fill:#4b5563;fill-opacity:1;stroke:none;stroke-width:0.263735"
       id="rect4384-62-8-6-9"
       width="25.000002"
       height="24.999998"
       x="125"
       y="150" /><rect
       style="fill:#2a303c;fill-opacity:1;stroke:none;stroke-width:0.263735"
       id="rect4384-06-7-8-7"
       width="25.000002"
       height="24.999998"
       x="149.99995"
       y="150" /><rect
       style="fill:#4b5563;fill-opacity:1;stroke:none;stroke-width:0.263735"
       id="rect4384-62-2-9-9-7"
       width="25.000002"
       height="24.999998"
       x="174.99998"
       y="150" /><rect
       style="fill:#2a303c;fill-opacity:1;stroke:none;stroke-width:0.263735"
       id="rect4384-2-2-6"
       width="25.000002"
       height="24.999998"
       x="24.999985"
       y="175" /><rect
       style="fill:#4b5563;fill-opacity:1;stroke:none;stroke-width:0.263735"
       id="rect4384-62-0-6-7"
       width="25.000002"
       height="24.999998"
       x="50"
       y="175" /><rect
       style="fill:#2a303c;fill-opacity:1;stroke:none;stroke-width:0.263735"
       id="rect4384-06-2-6-3"
       width="25.000002"
       height="24.999998"
       x="75"
       y="175" /><rect
       style="fill:#4b5563;fill-opacity:1;stroke:none;stroke-width:0.263735"
       id="rect4384-62-2-3-4-6"
       width="25.000002"
       height="24.999998"
       x="100"
       y="175" /><rect
       style="fill:#2a303c;fill-opacity:1;stroke:none;stroke-width:0.263735"
       id="rect4384-61-7-9-5"
       width="25.000002"
       height="24.999998"
       x="125"
       y="175" /><rect
       style="fill:#4b5563;fill-opacity:1;stroke:none;stroke-width:0.263735"
       id="rect4384-62-8-5-5-6"
       width="25.000002"
       height="24.999998"
       x="149.99995"
       y="175" /><rect
       style="fill:#2a303c;fill-opacity:1;stroke:none;stroke-width:0.263735"
       id="rect4384-06-7-9-0-3"
       width="25.000002"
       height="24.999998"
       x="174.99998"
       y="175" /><rect
       style="fill:#4b5563;fill-opacity:1;stroke:none;stroke-width:0.263735"
       id="rect4384-62-2-9-2-4-9"
       width="25.000002"
       height="24.999998"
       x="0"
       y="175" /><g
       id="g9342"
       transform="matrix(0.29658946,0,0,0.30273438,24.073098,20)"
       style="fill:#a6adba;fill-opacity:1">
	<path
   class="st0"
   d="M 338.686,361.552 C 308.99,314.304 306.439,266.817 306.439,266.817 H 205.57 c 0,0 -2.56,47.487 -32.256,94.735 -18.823,29.954 -45.453,38.266 -43.665,70.046 0.821,14.714 14.972,17.686 14.972,17.686 h 222.75 c 0,0 14.16,-2.972 14.982,-17.686 1.785,-31.78 -24.844,-40.093 -43.667,-70.046 z"
   id="path9330"
   style="fill:#a6adba;fill-opacity:1" />
	<path
   class="st0"
   d="m 194.773,198.863 h 122.454 c 0,-24.318 15.355,-56.144 28.158,-74.232 10.224,-14.456 6.392,-22.358 -3.841,-23.093 -14.15,-1.003 -14.265,8.81 -28.521,8.81 -14.256,0 -14.256,-8.81 -28.511,-8.81 -14.256,0 -14.256,8.81 -28.512,8.81 -14.256,0 -14.256,-8.81 -28.511,-8.81 -14.255,0 -14.256,8.81 -28.512,8.81 -14.265,0 -14.37,-9.812 -28.52,-8.81 -10.243,0.736 -14.064,8.637 -3.841,23.093 12.793,18.088 28.157,49.915 28.157,74.232 z"
   id="path9332"
   style="fill:#a6adba;fill-opacity:1" />
	<path
   class="st0"
   d="M 316.864,214.389 H 195.136 c 0,9.23 -8.876,15.823 -17.752,21.087 -8.867,5.265 -6.65,15.804 0,15.804 h 157.232 c 6.65,0 8.867,-10.539 0,-15.804 -8.876,-5.264 -17.752,-11.857 -17.752,-21.087 z"
   id="path9334"
   style="fill:#a6adba;fill-opacity:1" />
	<path
   class="st0"
   d="m 256,29.954 c 8.274,0 14.982,-6.708 14.982,-14.973 C 270.982,6.707 264.274,0 256,0 c -8.274,0 -14.982,6.707 -14.982,14.981 0,8.265 6.707,14.973 14.982,14.973 z"
   id="path9336"
   style="fill:#a6adba;fill-opacity:1" />
	<polygon
   class="st0"
   points="132.419,512 379.581,512 379.581,485.362 367.37,464.819 144.62,464.819 132.419,485.362 "
   id="polygon9338"
   style="fill:#a6adba;fill-opacity:1" />
	<path
   class="st0"
   d="m 227.488,88.228 c 10.902,0 17.122,3.842 21.25,6.393 2.924,1.805 3.918,2.416 7.262,2.416 3.344,0 4.338,-0.611 7.262,-2.416 4.128,-2.552 10.348,-6.393 21.25,-6.393 10.911,0 17.141,3.842 21.259,6.393 2.408,1.49 3.526,2.15 5.704,2.34 -0.057,-30.575 -24.871,-55.36 -55.475,-55.36 -30.594,0 -55.408,24.785 -55.475,55.36 2.178,-0.191 3.306,-0.85 5.704,-2.34 4.118,-2.552 10.348,-6.393 21.259,-6.393 z"
   id="path9340"
   style="fill:#a6adba;fill-opacity:1" />
</g></g><style
     type="text/css"
     id="style9223">
	.st0{fill:#000000;}
</style><style
     type="text/css"
     id="style9237">
	.st0{fill:#000000;}
</style><style
     type="text/css"
     id="style9251">
	.st0{fill:#000000;}
</style><style
     type="text/css"
     id="style9277">
	.st0{fill:#000000;}
</style><style
     type="text/css"
     id="style9294">
	.st0{fill:#000000;}
</style><style
     type="text/css"
     id="style9311">
	.st0{fill:#000000;}
</style><style
     type="text/css"
     id="style9328">
	.st0{fill:#000000;}
</style><style
     type="text/css"
     id="style9357">
	.st0{fill:#000000;}
</style></svg>
